# Blender 3.4.1
# www.blender.org
mtllib debugMesh.mtl
o Cube
v 1.000000 -1.000000 -1.000000
v 1.000000 1.000000 1.000000
v 1.000000 -1.000000 1.000000
v -1.000000 -1.000000 -1.000000
v -1.000000 1.000000 1.000000
v -1.000000 -1.000000 1.000000
vn -0.0000 -0.0000 1.0000
vn -0.0000 -1.0000 -0.0000
vt 0.375000 0.500000
vt 0.625000 0.750000
vt 0.375000 0.750000
vt 0.125000 0.500000
vt 0.625000 1.000000
vt 0.375000 1.000000
vt 0.125000 0.750000
s 0
usemtl Material
f 2/2/1 6/6/1 3/3/1
f 1/1/2 6/7/2 4/4/2
f 2/2/1 5/5/1 6/6/1
f 1/1/2 3/3/2 6/7/2
